<svg width="31" height="31" viewBox="0 0 31 31" fill="none" xmlns="http://www.w3.org/2000/svg">
<path d="M26.2908 19.8326L27.2187 20.2055C27.3681 19.8337 27.2812 19.4087 26.9979 19.1255C26.7147 18.8422 26.2897 18.7553 25.9179 18.9047L26.2908 19.8326ZM11.1675 4.70926L12.0954 5.08215C12.2448 4.71043 12.1579 4.28543 11.8746 4.00215C11.5913 3.71888 11.1663 3.632 10.7946 3.78138L11.1675 4.70926ZM25.9179 18.9047C24.6956 19.3959 23.3598 19.6667 21.9583 19.6667V21.6667C23.6196 21.6667 25.2082 21.3454 26.6637 20.7605L25.9179 18.9047ZM21.9583 19.6667C16.0903 19.6667 11.3333 14.9098 11.3333 9.04175H9.33333C9.33333 16.0143 14.9857 21.6667 21.9583 21.6667V19.6667ZM11.3333 9.04175C11.3333 7.64028 11.6042 6.30451 12.0954 5.08215L10.2396 4.33637C9.65472 5.79184 9.33333 7.38049 9.33333 9.04175H11.3333ZM4.875 15.5001C4.875 11.0333 7.63173 7.20792 11.5404 5.63714L10.7946 3.78138C6.15418 5.64624 2.875 10.189 2.875 15.5001H4.875ZM15.5 26.1251C9.63197 26.1251 4.875 21.3681 4.875 15.5001H2.875C2.875 22.4727 8.52741 28.1251 15.5 28.1251V26.1251ZM25.3629 19.4597C23.7922 23.3684 19.9668 26.1251 15.5 26.1251V28.1251C20.8111 28.1251 25.3538 24.8459 27.2187 20.2055L25.3629 19.4597Z" fill="white"/>
</svg>